<svg width="24" height="24" viewBox="0 0 24 24" fill="none" xmlns="http://www.w3.org/2000/svg">
<path fill-rule="evenodd" clip-rule="evenodd" d="M17.371 13.632C18.0457 13.632 18.612 14.1889 18.5089 14.8552C17.9036 18.7752 14.5478 21.6857 10.5004 21.6857C6.02254 21.6857 2.39307 18.0562 2.39307 13.5794C2.39307 9.89098 5.19517 6.45519 8.34991 5.67835C9.0278 5.51098 9.72254 5.98782 9.72254 6.68572C9.72254 11.4141 9.88149 12.6373 10.7794 13.3026C11.6773 13.9678 12.7331 13.632 17.371 13.632Z" fill="white"/>
<path fill-rule="evenodd" clip-rule="evenodd" d="M21.7856 9.69446C21.8393 6.65657 18.1078 1.75973 13.5604 1.84394C13.2067 1.85025 12.9235 2.14499 12.9078 2.49762C12.793 4.99552 12.9478 8.23236 13.0341 9.69973C13.0604 10.1566 13.4193 10.5155 13.8751 10.5418C15.3835 10.6281 18.7383 10.746 21.2004 10.3734C21.5351 10.3229 21.7804 10.0324 21.7856 9.69446Z" fill="white"/>
</svg>
