<svg width="24" height="24" viewBox="0 0 24 24" fill="none" xmlns="http://www.w3.org/2000/svg">
<path d="M12.4196 2.22168C12.9428 2.22147 13.4436 2.42851 13.8083 2.79492C14.173 3.16138 14.3711 3.65613 14.3561 4.16699C14.3595 4.48546 14.4486 4.79738 14.6149 5.07129C14.8737 5.50234 15.2975 5.81577 15.7926 5.94141C16.2879 6.06701 16.8147 5.99488 17.2555 5.74121C18.1815 5.22321 19.3623 5.53443 19.8952 6.4375L20.5251 7.50586V7.51465C21.0509 8.41482 20.7368 9.56066 19.821 10.084C19.5279 10.2479 19.2847 10.4853 19.1169 10.7715C18.8587 11.2043 18.7875 11.7201 18.9196 12.2041C19.0517 12.6881 19.3764 13.1008 19.821 13.3506C20.2654 13.6004 20.5892 14.0131 20.7213 14.4971C20.8534 14.9809 20.783 15.496 20.5251 15.9287L19.8581 17.0146C19.3221 17.9147 18.1421 18.2219 17.2184 17.7021C16.9358 17.5444 16.6171 17.4577 16.2917 17.4492C15.7775 17.4468 15.2832 17.6449 14.9196 18C14.5561 18.3551 14.3537 18.8377 14.3561 19.3398C14.351 20.3807 13.4852 21.2217 12.4196 21.2217H11.151C10.0819 21.2217 9.21455 20.3754 9.21451 19.3311C9.21112 19.0124 9.12223 18.6998 8.95572 18.4258C8.70178 17.9923 8.28071 17.676 7.78678 17.5469C7.29287 17.4178 6.7665 17.4867 6.32486 17.7383C5.8757 17.9842 5.3446 18.0456 4.84928 17.9082C4.35394 17.7707 3.93491 17.4458 3.68521 17.0059L3.04557 15.9287C2.51437 15.0292 2.82942 13.8794 3.74967 13.3594C4.34862 13.0216 4.71744 12.3972 4.71744 11.7217C4.71739 11.0461 4.34862 10.4218 3.74967 10.084C2.82827 9.56043 2.51353 8.40806 3.04557 7.50586L3.72135 6.41992C4.25423 5.51654 5.43584 5.20528 6.36197 5.72363C6.64234 5.88608 6.96178 5.9732 7.28775 5.97656C8.3462 5.97667 9.20908 5.14605 9.22428 4.1123C9.22191 3.61187 9.42348 3.13115 9.78482 2.77637C10.1464 2.42148 10.6384 2.22167 11.151 2.22168H12.4196ZM11.7897 9.11621C10.3164 9.11625 9.12183 10.2827 9.12174 11.7217C9.12174 13.1608 10.3164 14.3271 11.7897 14.3271C13.2631 14.3271 14.4577 13.1608 14.4577 11.7217C14.4576 10.2826 13.263 9.11621 11.7897 9.11621Z" fill="white"/>
</svg>
