<svg width="24" height="25" viewBox="0 0 24 25" fill="none" xmlns="http://www.w3.org/2000/svg">
<path d="M8.28557 3.07129H3.99986C3.21088 3.07129 2.57129 3.71088 2.57129 4.49986V8.78557C2.57129 9.57455 3.21088 10.2141 3.99986 10.2141H8.28557C9.07455 10.2141 9.71415 9.57455 9.71415 8.78557V4.49986C9.71415 3.71088 9.07455 3.07129 8.28557 3.07129Z" fill="#66A4FF"/>
<path d="M19.714 3.07129H15.4283C14.6393 3.07129 13.9998 3.71088 13.9998 4.49986V8.78557C13.9998 9.57455 14.6393 10.2141 15.4283 10.2141H19.714C20.503 10.2141 21.1426 9.57455 21.1426 8.78557V4.49986C21.1426 3.71088 20.503 3.07129 19.714 3.07129Z" fill="#66A4FF"/>
<path d="M8.28557 14.5H3.99986C3.21088 14.5 2.57129 15.1396 2.57129 15.9286V20.2143C2.57129 21.0033 3.21088 21.6429 3.99986 21.6429H8.28557C9.07455 21.6429 9.71415 21.0033 9.71415 20.2143V15.9286C9.71415 15.1396 9.07455 14.5 8.28557 14.5Z" fill="#66A4FF"/>
<path d="M19.714 14.5H15.4283C14.6393 14.5 13.9998 15.1396 13.9998 15.9286V20.2143C13.9998 21.0033 14.6393 21.6429 15.4283 21.6429H19.714C20.503 21.6429 21.1426 21.0033 21.1426 20.2143V15.9286C21.1426 15.1396 20.503 14.5 19.714 14.5Z" fill="#66A4FF"/>
</svg>
