<svg width="24" height="24" viewBox="0 0 24 24" fill="none" xmlns="http://www.w3.org/2000/svg">
<path d="M17.9228 13.8213C17.6638 14.0723 17.5448 14.4353 17.6038 14.7913L18.4928 19.7113C18.5678 20.1283 18.3918 20.5503 18.0428 20.7913C17.7008 21.0413 17.2458 21.0713 16.8728 20.8713L12.4438 18.5613C12.2898 18.4793 12.1188 18.4353 11.9438 18.4303H11.6728C11.5788 18.4443 11.4868 18.4743 11.4028 18.5203L6.97278 20.8413C6.75378 20.9513 6.50578 20.9903 6.26278 20.9513C5.67078 20.8393 5.27578 20.2753 5.37278 19.6803L6.26278 14.7603C6.32178 14.4013 6.20278 14.0363 5.94378 13.7813L2.33278 10.2813C2.03078 9.98827 1.92578 9.54827 2.06378 9.15127C2.19778 8.75527 2.53978 8.46627 2.95278 8.40127L7.92278 7.68027C8.30078 7.64127 8.63278 7.41127 8.80278 7.07127L10.9928 2.58127C11.0448 2.48127 11.1118 2.38927 11.1928 2.31127L11.2828 2.24127C11.3298 2.18927 11.3838 2.14627 11.4438 2.11127L11.5528 2.07127L11.7228 2.00127H12.1438C12.5198 2.04027 12.8508 2.26527 13.0238 2.60127L15.2428 7.07127C15.4028 7.39827 15.7138 7.62527 16.0728 7.68027L21.0428 8.40127C21.4628 8.46127 21.8138 8.75127 21.9528 9.15127C22.0838 9.55227 21.9708 9.99227 21.6628 10.2813L17.9228 13.8213Z" fill="white"/>
</svg>
