<svg width="25" height="24" viewBox="0 0 25 24" fill="none" xmlns="http://www.w3.org/2000/svg">
<path fill-rule="evenodd" clip-rule="evenodd" d="M17.5677 13.6321C18.2425 13.6321 18.8088 14.1889 18.7056 14.8552C18.1004 18.7752 14.7446 21.6857 10.6972 21.6857C6.21932 21.6857 2.58984 18.0563 2.58984 13.5794C2.58984 9.89101 5.39195 6.45522 8.54669 5.67838C9.22458 5.51101 9.91932 5.98785 9.91932 6.68575C9.91932 11.4142 10.0783 12.6373 10.9762 13.3026C11.8741 13.9679 12.9298 13.6321 17.5677 13.6321Z" fill="#CCE1FF"/>
<path fill-rule="evenodd" clip-rule="evenodd" d="M21.9822 9.69437C22.0359 6.65648 18.3043 1.75963 13.7569 1.84385C13.4032 1.85016 13.1201 2.1449 13.1043 2.49753C12.9896 4.99542 13.1443 8.23227 13.2306 9.69964C13.2569 10.1565 13.6159 10.5154 14.0717 10.5417C15.5801 10.6281 18.9348 10.746 21.3969 10.3733C21.7317 10.3228 21.9769 10.0323 21.9822 9.69437Z" fill="#CCE1FF"/>
</svg>
