<svg width="24" height="25" viewBox="0 0 24 25" fill="none" xmlns="http://www.w3.org/2000/svg">
<path d="M12.4196 2.72168C12.9428 2.72147 13.4436 2.92851 13.8083 3.29492C14.173 3.66138 14.3711 4.15613 14.3561 4.66699C14.3595 4.98546 14.4486 5.29738 14.6149 5.57129C14.8737 6.00234 15.2975 6.31577 15.7926 6.44141C16.2879 6.56701 16.8147 6.49488 17.2555 6.24121C18.1815 5.72321 19.3623 6.03443 19.8952 6.9375L20.5251 8.00586V8.01465C21.0509 8.91482 20.7368 10.0607 19.821 10.584C19.5279 10.7479 19.2847 10.9853 19.1169 11.2715C18.8587 11.7043 18.7875 12.2201 18.9196 12.7041C19.0517 13.1881 19.3764 13.6008 19.821 13.8506C20.2654 14.1004 20.5892 14.5131 20.7213 14.9971C20.8534 15.4809 20.783 15.996 20.5251 16.4287L19.8581 17.5146C19.3221 18.4147 18.1421 18.7219 17.2184 18.2021C16.9358 18.0444 16.6171 17.9577 16.2917 17.9492C15.7775 17.9468 15.2832 18.1449 14.9196 18.5C14.5561 18.8551 14.3537 19.3377 14.3561 19.8398C14.351 20.8807 13.4852 21.7217 12.4196 21.7217H11.151C10.0819 21.7217 9.21455 20.8754 9.21451 19.8311C9.21112 19.5124 9.12223 19.1998 8.95572 18.9258C8.70178 18.4923 8.28071 18.176 7.78678 18.0469C7.29287 17.9178 6.7665 17.9867 6.32486 18.2383C5.8757 18.4842 5.3446 18.5456 4.84928 18.4082C4.35394 18.2707 3.93491 17.9458 3.68522 17.5059L3.04557 16.4287C2.51437 15.5292 2.82942 14.3794 3.74967 13.8594C4.34862 13.5216 4.71744 12.8972 4.71744 12.2217C4.71739 11.5461 4.34862 10.9218 3.74967 10.584C2.82827 10.0604 2.51353 8.90806 3.04557 8.00586L3.72135 6.91992C4.25423 6.01654 5.43584 5.70528 6.36197 6.22363C6.64234 6.38608 6.96178 6.4732 7.28775 6.47656C8.3462 6.47667 9.20908 5.64605 9.22428 4.6123C9.22191 4.11187 9.42348 3.63115 9.78482 3.27637C10.1464 2.92148 10.6384 2.72167 11.151 2.72168H12.4196ZM11.7897 9.61621C10.3164 9.61625 9.12183 10.7827 9.12174 12.2217C9.12174 13.6608 10.3164 14.8271 11.7897 14.8271C13.2631 14.8271 14.4577 13.6608 14.4577 12.2217C14.4576 10.7826 13.263 9.61621 11.7897 9.61621Z" fill="#66A4FF"/>
</svg>
