<svg width="24" height="24" viewBox="0 0 24 24" fill="none" xmlns="http://www.w3.org/2000/svg">
<path d="M8.28557 2.57141H3.99986C3.21088 2.57141 2.57129 3.211 2.57129 3.99998V8.2857C2.57129 9.07468 3.21088 9.71427 3.99986 9.71427H8.28557C9.07455 9.71427 9.71415 9.07468 9.71415 8.2857V3.99998C9.71415 3.211 9.07455 2.57141 8.28557 2.57141Z" fill="white"/>
<path d="M19.714 2.57141H15.4283C14.6393 2.57141 13.9998 3.211 13.9998 3.99998V8.2857C13.9998 9.07468 14.6393 9.71427 15.4283 9.71427H19.714C20.503 9.71427 21.1426 9.07468 21.1426 8.2857V3.99998C21.1426 3.211 20.503 2.57141 19.714 2.57141Z" fill="white"/>
<path d="M8.28557 14H3.99986C3.21088 14 2.57129 14.6396 2.57129 15.4286V19.7143C2.57129 20.5033 3.21088 21.1429 3.99986 21.1429H8.28557C9.07455 21.1429 9.71415 20.5033 9.71415 19.7143V15.4286C9.71415 14.6396 9.07455 14 8.28557 14Z" fill="white"/>
<path d="M19.714 14H15.4283C14.6393 14 13.9998 14.6396 13.9998 15.4286V19.7143C13.9998 20.5033 14.6393 21.1429 15.4283 21.1429H19.714C20.503 21.1429 21.1426 20.5033 21.1426 19.7143V15.4286C21.1426 14.6396 20.503 14 19.714 14Z" fill="white"/>
</svg>
