<svg width="24" height="24" viewBox="0 0 24 24" fill="none" xmlns="http://www.w3.org/2000/svg">
<path d="M17.9228 13.8212C17.6638 14.0722 17.5448 14.4352 17.6038 14.7912L18.4928 19.7112C18.5678 20.1282 18.3918 20.5502 18.0428 20.7912C17.7008 21.0412 17.2458 21.0712 16.8728 20.8712L12.4438 18.5612C12.2898 18.4792 12.1188 18.4352 11.9438 18.4302H11.6728C11.5788 18.4442 11.4868 18.4742 11.4028 18.5202L6.97278 20.8412C6.75378 20.9512 6.50578 20.9902 6.26278 20.9512C5.67078 20.8392 5.27578 20.2752 5.37278 19.6802L6.26278 14.7602C6.32178 14.4012 6.20278 14.0362 5.94378 13.7812L2.33278 10.2812C2.03078 9.98822 1.92578 9.54822 2.06378 9.15122C2.19778 8.75522 2.53978 8.46622 2.95278 8.40122L7.92278 7.68022C8.30078 7.64122 8.63278 7.41122 8.80278 7.07122L10.9928 2.58122C11.0448 2.48122 11.1118 2.38922 11.1928 2.31122L11.2828 2.24122C11.3298 2.18922 11.3838 2.14622 11.4438 2.11122L11.5528 2.07122L11.7228 2.00122H12.1438C12.5198 2.04022 12.8508 2.26522 13.0238 2.60122L15.2428 7.07122C15.4028 7.39822 15.7138 7.62522 16.0728 7.68022L21.0428 8.40122C21.4628 8.46122 21.8138 8.75122 21.9528 9.15122C22.0838 9.55222 21.9708 9.99222 21.6628 10.2812L17.9228 13.8212Z" fill="#FFA638"/>
</svg>
