<svg width="24" height="24" viewBox="0 0 24 24" fill="none" xmlns="http://www.w3.org/2000/svg">
<path d="M15.6494 2.95215C16.0739 2.95124 16.4101 3.24962 16.4111 3.64746L16.4121 4.32617C19.1666 4.52159 20.9863 6.21989 20.9893 8.82422L21 16.4473C21.0039 19.2867 19.0323 21.0335 15.8721 21.0381L8.15234 21.0479C5.01182 21.0515 3.0149 19.2625 3.01074 16.415L3 8.88086C2.99605 6.25937 4.75141 4.56581 7.50586 4.33691L7.50488 3.6582C7.50401 3.26041 7.8303 2.96094 8.26465 2.96094C8.69884 2.96013 9.02421 3.2586 9.02539 3.65625L9.02637 4.29004L14.8916 4.28223L14.8906 3.64941C14.8896 3.25159 15.2151 2.95316 15.6494 2.95215ZM16.043 15.793C15.5888 15.8029 15.2245 16.1475 15.2344 16.5635C15.2357 16.9792 15.6017 17.322 16.0557 17.3311C16.5185 17.33 16.8934 16.9853 16.8926 16.5605C16.8926 16.1356 16.5167 15.7931 16.0527 15.793H16.043ZM7.91699 15.793C7.46282 15.8111 7.10741 16.1563 7.1084 16.5723C7.1293 16.988 7.50413 17.3137 7.95801 17.2949C8.40329 17.2768 8.75804 16.9316 8.7373 16.5156C8.72728 16.1088 8.36116 15.7921 7.91699 15.793ZM11.9844 15.7891C11.5305 15.8082 11.1759 16.1516 11.1758 16.5674C11.1966 16.9833 11.5723 17.3081 12.0264 17.29C12.4705 17.271 12.8262 16.9274 12.8057 16.5107C12.7958 16.1047 12.4287 15.7882 11.9844 15.7891ZM7.91211 12.5381C7.45803 12.5562 7.10365 12.9005 7.10449 13.3164C7.12436 13.7322 7.50016 14.0579 7.9541 14.0391C8.39826 14.021 8.75293 13.6766 8.73242 13.2607C8.72255 12.8538 8.35733 12.5372 7.91211 12.5381ZM11.9805 12.5068C11.5264 12.5251 11.1709 12.8693 11.1719 13.2852C11.1918 13.701 11.5684 14.0259 12.0225 14.0078C12.4666 13.9887 12.8204 13.6443 12.8008 13.2285C12.7897 12.8218 12.4246 12.5059 11.9805 12.5068ZM16.0488 12.5107C15.5947 12.5198 15.2393 12.8545 15.2402 13.2705V13.2803C15.2502 13.6961 15.625 14.0119 16.0801 14.0029C16.5243 13.993 16.8789 13.6483 16.8691 13.2324C16.8483 12.8347 16.492 12.51 16.0488 12.5107ZM9.02832 5.68262L9.0293 6.41406C9.02917 6.80367 8.70478 7.11126 8.27051 7.11133C7.83622 7.11223 7.50899 6.8056 7.50879 6.41602L7.50781 5.71973C5.58286 5.89435 4.51766 6.91779 4.52051 8.87891L4.52148 9.16016L19.4697 9.14258V8.82617C19.4273 6.88199 18.3491 5.86195 16.4141 5.70996L16.415 6.40625C16.4147 6.79484 16.0796 7.10351 15.6553 7.10352C15.2213 7.10426 14.8949 6.79663 14.8945 6.4082L14.8936 5.6748L9.02832 5.68262Z" fill="#333333"/>
</svg>
