<svg width="24" height="22" viewBox="0 0 24 22" fill="none" xmlns="http://www.w3.org/2000/svg">
<path d="M15.6494 1.80957C16.0739 1.80867 16.4101 2.10704 16.4111 2.50488L16.4121 3.18359C19.1666 3.37901 20.9863 5.07731 20.9893 7.68164L21 15.3047C21.0039 18.1441 19.0323 19.8909 15.8721 19.8955L8.15234 19.9053C5.01182 19.9089 3.0149 18.1199 3.01074 15.2725L3 7.73828C2.99605 5.1168 4.75141 3.42324 7.50586 3.19434L7.50488 2.51562C7.50401 2.11784 7.8303 1.81836 8.26465 1.81836C8.69884 1.81755 9.02421 2.11602 9.02539 2.51367L9.02637 3.14746L14.8916 3.13965L14.8906 2.50684C14.8896 2.10901 15.2151 1.81059 15.6494 1.80957ZM16.043 14.6504C15.5888 14.6603 15.2245 15.0049 15.2344 15.4209C15.2357 15.8366 15.6017 16.1794 16.0557 16.1885C16.5185 16.1875 16.8934 15.8428 16.8926 15.418C16.8926 14.993 16.5167 14.6505 16.0527 14.6504H16.043ZM7.91699 14.6504C7.46282 14.6685 7.10741 15.0137 7.1084 15.4297C7.1293 15.8454 7.50413 16.1711 7.95801 16.1523C8.40329 16.1343 8.75804 15.789 8.7373 15.373C8.72728 14.9663 8.36116 14.6495 7.91699 14.6504ZM11.9844 14.6465C11.5305 14.6656 11.1759 15.009 11.1758 15.4248C11.1966 15.8407 11.5723 16.1655 12.0264 16.1475C12.4705 16.1284 12.8262 15.7848 12.8057 15.3682C12.7958 14.9621 12.4287 14.6456 11.9844 14.6465ZM7.91211 11.3955C7.45803 11.4136 7.10365 11.758 7.10449 12.1738C7.12436 12.5896 7.50016 12.9153 7.9541 12.8965C8.39826 12.8784 8.75293 12.534 8.73242 12.1182C8.72255 11.7113 8.35733 11.3947 7.91211 11.3955ZM11.9805 11.3643C11.5264 11.3825 11.1709 11.7267 11.1719 12.1426C11.1918 12.5584 11.5684 12.8833 12.0225 12.8652C12.4666 12.8461 12.8204 12.5017 12.8008 12.0859C12.7897 11.6792 12.4246 11.3634 11.9805 11.3643ZM16.0488 11.3682C15.5947 11.3772 15.2393 11.712 15.2402 12.1279V12.1377C15.2502 12.5535 15.625 12.8694 16.0801 12.8604C16.5243 12.8504 16.8789 12.5057 16.8691 12.0898C16.8483 11.6921 16.492 11.3674 16.0488 11.3682ZM9.02832 4.54004L9.0293 5.27148C9.02917 5.66109 8.70478 5.96868 8.27051 5.96875C7.83622 5.96965 7.50899 5.66302 7.50879 5.27344L7.50781 4.57715C5.58286 4.75177 4.51766 5.77521 4.52051 7.73633L4.52148 8.01758L19.4697 8V7.68359C19.4273 5.73942 18.3491 4.71938 16.4141 4.56738L16.415 5.26367C16.4147 5.65226 16.0796 5.96093 15.6553 5.96094C15.2213 5.96169 14.8949 5.65405 14.8945 5.26562L14.8936 4.53223L9.02832 4.54004Z" fill="#333333"/>
</svg>
