<svg width="16" height="16" viewBox="0 0 16 16" fill="none" xmlns="http://www.w3.org/2000/svg">
<path d="M7.29346 9.41418L4.81787 11.8898C4.62261 12.0848 4.30603 12.0849 4.11084 11.8898C3.91565 11.6946 3.9158 11.378 4.11084 11.1827L6.58643 8.70715L7.29346 9.41418ZM11.8892 11.1818C12.0842 11.377 12.0843 11.6936 11.8892 11.8888C11.694 12.084 11.3774 12.0838 11.1821 11.8888L8.70752 9.41418L9.41455 8.70715L11.8892 11.1818ZM8.70752 8.00012L8.00049 8.70715L7.29346 8.00012L8.00049 7.29309L8.70752 8.00012ZM4.11084 4.11047C4.3061 3.91521 4.62261 3.91521 4.81787 4.11047L7.29346 6.58606L6.58643 7.29309L4.11084 4.8175C3.91558 4.62224 3.91558 4.30574 4.11084 4.11047ZM11.1821 4.11145C11.3774 3.91619 11.6939 3.91619 11.8892 4.11145C12.0844 4.30672 12.0844 4.62324 11.8892 4.81848L9.41455 7.29309L8.70752 6.58606L11.1821 4.11145Z" stroke="#333333"/>
</svg>
