<svg width="24" height="24" viewBox="0 0 24 24" fill="none" xmlns="http://www.w3.org/2000/svg">
<mask id="mask0_2908_125109" style="mask-type:alpha" maskUnits="userSpaceOnUse" x="0" y="0" width="24" height="24">
<rect width="24" height="24" fill="#D9D9D9"/>
</mask>
<g mask="url(#mask0_2908_125109)">
<path d="M17.1066 15.2182C17.1066 16.7329 16.5847 18.0218 15.5411 19.0849C14.4976 20.1481 13.2213 20.6797 11.7123 20.6797C10.2033 20.6797 8.92383 20.1481 7.87383 19.0849C6.82383 18.0218 6.29883 16.7329 6.29883 15.2182V6.48744C6.29883 5.42977 6.66258 4.53069 7.39008 3.79019C8.11774 3.04985 9.01041 2.67969 10.0681 2.67969C11.1257 2.67969 12.0183 3.04985 12.7458 3.79019C13.4735 4.53069 13.8373 5.42977 13.8373 6.48744V14.7567C13.8373 15.3439 13.6324 15.8496 13.2226 16.2739C12.8129 16.6983 12.3136 16.9104 11.7246 16.9104C11.1356 16.9104 10.6289 16.7016 10.2046 16.2839C9.78024 15.8663 9.56808 15.3572 9.56808 14.7567V6.44894H10.5681V14.7567C10.5681 15.0759 10.6773 15.3479 10.8958 15.5729C11.1145 15.7979 11.3834 15.9104 11.7026 15.9104C12.0219 15.9104 12.2908 15.7979 12.5093 15.5729C12.728 15.3479 12.8373 15.0759 12.8373 14.7567V6.46819C12.8335 5.69119 12.5663 5.03219 12.0358 4.49119C11.5055 3.95019 10.8496 3.67969 10.0681 3.67969C9.29258 3.67969 8.63716 3.95344 8.10183 4.50094C7.56649 5.04827 7.29883 5.71044 7.29883 6.48744V15.2182C7.29499 16.4529 7.72258 17.5051 8.58158 18.3749C9.44041 19.2448 10.4863 19.6797 11.7193 19.6797C12.9347 19.6797 13.9677 19.2448 14.8186 18.3749C15.6694 17.5051 16.0987 16.4529 16.1066 15.2182V6.44894H17.1066V15.2182Z" fill="#333333"/>
</g>
</svg>
