<svg width="28" height="32" viewBox="0 0 28 32" fill="none" xmlns="http://www.w3.org/2000/svg">
<g filter="url(#filter0_d_2921_3474)">
<rect x="4.5" width="19" height="24" rx="2" fill="white"/>
<rect x="5" y="0.5" width="18" height="23" rx="1.5" stroke="#E5F0FF"/>
</g>
<path d="M17.975 12H18.975V13.125H17.975V12Z" fill="#54B1F5"/>
<path d="M15.5 18.6222H16.5V21H15.5V18.6222Z" fill="#54B1F5"/>
<path d="M15.65 13.9943V12.9716H21.275V13.9943H15.65Z" fill="#54B1F5"/>
<path d="M16.15 21V19.9773H21.5V21H16.15Z" fill="#54B1F5"/>
<path d="M19.1 18.9801C19.1 19.3473 18.809 19.6449 18.45 19.6449C18.091 19.6449 17.8 19.3473 17.8 18.9801C17.8 18.613 18.091 18.3153 18.45 18.3153C18.809 18.3153 19.1 18.613 19.1 18.9801Z" fill="#54B1F5"/>
<path fill-rule="evenodd" clip-rule="evenodd" d="M18.4625 14.2244C19.5049 14.2244 20.35 15.0887 20.35 16.1548C20.35 17.221 19.5049 18.0852 18.4625 18.0852C17.4201 18.0852 16.575 17.221 16.575 16.1548C16.575 15.0887 17.4201 14.2244 18.4625 14.2244ZM18.45 15.2983C17.9944 15.2983 17.625 15.6761 17.625 16.142C17.625 16.608 17.9944 16.9858 18.45 16.9858C18.9056 16.9858 19.275 16.608 19.275 16.142C19.275 15.6761 18.9056 15.2983 18.45 15.2983Z" fill="#54B1F5"/>
<path d="M6.5 2H15.5V3H6.5V2Z" fill="#E5F0FF"/>
<path d="M6.5 4H21.5V5H6.5V4Z" fill="#E5F0FF"/>
<path d="M6.5 6H21.5V7H6.5V6Z" fill="#E5F0FF"/>
<path d="M6.5 8H21.5V9H6.5V8Z" fill="#E5F0FF"/>
<path d="M6.5 10H18.5V11H6.5V10Z" fill="#E5F0FF"/>
<path d="M6.5 12H14.5V13H6.5V12Z" fill="#E5F0FF"/>
<path d="M6.5 14H14.5V15H6.5V14Z" fill="#E5F0FF"/>
<path d="M6.5 16H14.5V17H6.5V16Z" fill="#E5F0FF"/>
<path d="M6.5 18H14.5V19H6.5V18Z" fill="#E5F0FF"/>
<defs>
<filter id="filter0_d_2921_3474" x="0.5" y="0" width="27" height="32" filterUnits="userSpaceOnUse" color-interpolation-filters="sRGB">
<feFlood flood-opacity="0" result="BackgroundImageFix"/>
<feColorMatrix in="SourceAlpha" type="matrix" values="0 0 0 0 0 0 0 0 0 0 0 0 0 0 0 0 0 0 127 0" result="hardAlpha"/>
<feOffset dy="4"/>
<feGaussianBlur stdDeviation="2"/>
<feComposite in2="hardAlpha" operator="out"/>
<feColorMatrix type="matrix" values="0 0 0 0 0 0 0 0 0 0 0 0 0 0 0 0 0 0 0.04 0"/>
<feBlend mode="normal" in2="BackgroundImageFix" result="effect1_dropShadow_2921_3474"/>
<feBlend mode="normal" in="SourceGraphic" in2="effect1_dropShadow_2921_3474" result="shape"/>
</filter>
</defs>
</svg>
