<svg width="24" height="24" viewBox="0 0 24 24" fill="none" xmlns="http://www.w3.org/2000/svg">
<mask id="mask0_2921_6153" style="mask-type:alpha" maskUnits="userSpaceOnUse" x="0" y="0" width="24" height="24">
<rect x="0.5" y="0.5" width="23" height="23" fill="#D9D9D9" stroke="#6F717B"/>
</mask>
<g mask="url(#mask0_2921_6153)">
<path d="M4.5 5.5H8.96777L10.9678 7.5H18.9004C19.2127 7.50008 19.4398 7.59713 19.6211 7.77832C19.8026 7.95978 19.9004 8.18735 19.9004 8.5V16.9004C19.9003 17.2128 19.8025 17.4397 19.6211 17.6211C19.4397 17.8025 19.2128 17.9003 18.9004 17.9004H4.5C4.18735 17.9004 3.95978 17.8026 3.77832 17.6211C3.59713 17.4398 3.50008 17.2127 3.5 16.9004V6.5C3.5 6.18735 3.59686 5.95978 3.77832 5.77832C3.95978 5.59686 4.18735 5.5 4.5 5.5Z" fill="#B3B3B3" stroke="#92959C"/>
</g>
</svg>
