<svg width="31" height="32" viewBox="0 0 31 32" fill="none" xmlns="http://www.w3.org/2000/svg">
<g filter="url(#filter0_d_2921_3477)">
<path d="M9.47394 0.195122C9.47394 0.087359 9.55959 9.34013e-08 9.66524 9.25346e-08L20.9456 0C20.9987 -4.35112e-10 21.0493 0.0224615 21.0855 0.0620206L26.4385 5.91456C26.4715 5.95066 26.4899 5.99818 26.4899 6.04755L26.5 23.8048C26.5001 23.9126 26.4144 24 26.3087 24H9.66524C9.55959 24 9.47394 23.9126 9.47394 23.8049V0.195122Z" fill="url(#paint0_linear_2921_3477)"/>
<path d="M21.0674 6.00934L26.3941 5.95215C26.4274 5.95179 26.4444 5.91128 26.4217 5.88649L21.095 0.0722774C21.0713 0.0464061 21.0288 0.0635127 21.0288 0.0989209V5.97032C21.0288 5.99203 21.0462 6.00957 21.0674 6.00934Z" fill="url(#paint1_linear_2921_3477)"/>
<path d="M16.7023 11.2193C16.759 10.1659 18.0252 10.0377 18.3559 11.2193C18.6204 12.1646 18.195 13.6834 17.9241 14.7678C18.195 15.4054 19.0798 16.5871 19.6072 17.1092C21.368 16.8344 22.3601 16.865 23.0126 17.1825C23.8975 17.613 23.7098 18.6722 22.8517 18.758C22.1188 18.8313 21.0373 18.758 19.4999 17.4481C19.1007 17.5031 17.9107 17.7394 16.4878 18.245C15.9426 19.1427 15.1828 20.3705 14.5393 20.9014C13.4846 21.7716 12.6891 21.4877 12.4656 21.0114C12.1617 20.1686 13.3952 19.3809 15.6386 18.245C15.9932 17.5244 16.8113 15.7224 17.2475 14.2787C17.0568 13.8116 16.6308 12.5475 16.7023 11.2193ZM15.3348 18.7397C12.2779 20.0915 12.4209 21.0022 12.993 21.0938C13.565 21.1854 14.2711 20.4434 15.3348 18.7397ZM22.816 17.9336C22.7802 17.0726 21.4932 17.0725 19.8128 17.3657C21.7702 18.7946 22.816 18.5382 22.816 17.9336ZM17.7749 15.1123C17.3029 16.5413 16.8453 17.5458 16.6755 17.8695C17.9483 17.4664 18.9577 17.2496 19.3033 17.1916C18.5954 16.3709 17.9894 15.4634 17.7749 15.1123ZM17.4084 13.8207C18.1503 11.3933 17.9 10.6239 17.3369 10.7063C16.747 10.8071 16.8274 12.5292 17.4084 13.8207Z" fill="#FF2116"/>
<path d="M4.5 1.95122C4.5 1.84346 4.58565 1.7561 4.69131 1.7561H19.0009C19.1066 1.7561 19.1922 1.84346 19.1922 1.95122V8.23415C19.1922 8.34191 19.1066 8.42927 19.0009 8.42927H4.69131C4.58565 8.42927 4.5 8.34191 4.5 8.23415V1.95122Z" fill="url(#paint2_linear_2921_3477)"/>
<path d="M8.96571 5.60126H8.04524V5.10831H8.96571C9.126 5.10831 9.25553 5.08189 9.3543 5.02904C9.45306 4.97619 9.52512 4.90353 9.57045 4.81105C9.6174 4.71692 9.64088 4.60958 9.64088 4.48902C9.64088 4.37508 9.6174 4.26856 9.57045 4.16947C9.52512 4.06874 9.45306 3.98782 9.3543 3.92671C9.25553 3.86561 9.126 3.83506 8.96571 3.83506H8.23225V6.94634H7.62265V3.33963H8.96571C9.23934 3.33963 9.47168 3.38918 9.66274 3.48826C9.85542 3.5857 10.0019 3.72111 10.1023 3.89451C10.2027 4.06626 10.2529 4.26278 10.2529 4.48407C10.2529 4.71692 10.2027 4.91674 10.1023 5.08354C10.0019 5.25033 9.85542 5.37832 9.66274 5.46749C9.47168 5.55667 9.23934 5.60126 8.96571 5.60126Z" fill="white"/>
<path d="M11.8267 6.94634H11.0714L11.0762 6.45339H11.8267C12.0453 6.45339 12.2282 6.40468 12.3756 6.30724C12.5245 6.20981 12.6363 6.07026 12.7107 5.88861C12.7868 5.70695 12.8249 5.49061 12.8249 5.2396V5.0439C12.8249 4.84903 12.803 4.67646 12.7593 4.52618C12.7172 4.3759 12.6541 4.24957 12.5699 4.14718C12.4873 4.04479 12.3853 3.96717 12.2639 3.91433C12.144 3.86148 12.0056 3.83506 11.8486 3.83506H11.0568V3.33963H11.8486C12.0833 3.33963 12.2979 3.38009 12.4922 3.46101C12.6864 3.54028 12.854 3.65506 12.9949 3.80534C13.1374 3.95561 13.2467 4.13562 13.3228 4.34535C13.3989 4.55508 13.4369 4.78958 13.4369 5.04886V5.2396C13.4369 5.49887 13.3989 5.73337 13.3228 5.9431C13.2467 6.15283 13.1374 6.33284 12.9949 6.48312C12.8524 6.63175 12.6824 6.74652 12.4849 6.82744C12.289 6.90671 12.0696 6.94634 11.8267 6.94634ZM11.409 3.33963V6.94634H10.7994V3.33963H11.409Z" fill="white"/>
<path d="M14.6585 3.33963V6.94634H14.0489V3.33963H14.6585ZM16.1012 4.91757V5.41052H14.5031V4.91757H16.1012ZM16.3028 3.33963V3.83506H14.5031V3.33963H16.3028Z" fill="white"/>
</g>
<defs>
<filter id="filter0_d_2921_3477" x="0.5" y="0" width="30" height="32" filterUnits="userSpaceOnUse" color-interpolation-filters="sRGB">
<feFlood flood-opacity="0" result="BackgroundImageFix"/>
<feColorMatrix in="SourceAlpha" type="matrix" values="0 0 0 0 0 0 0 0 0 0 0 0 0 0 0 0 0 0 127 0" result="hardAlpha"/>
<feOffset dy="4"/>
<feGaussianBlur stdDeviation="2"/>
<feComposite in2="hardAlpha" operator="out"/>
<feColorMatrix type="matrix" values="0 0 0 0 0 0 0 0 0 0 0 0 0 0 0 0 0 0 0.04 0"/>
<feBlend mode="normal" in2="BackgroundImageFix" result="effect1_dropShadow_2921_3477"/>
<feBlend mode="normal" in="SourceGraphic" in2="effect1_dropShadow_2921_3477" result="shape"/>
</filter>
<linearGradient id="paint0_linear_2921_3477" x1="15.1787" y1="1.41557e-10" x2="15.1787" y2="24" gradientUnits="userSpaceOnUse">
<stop stop-color="#F7F7F7"/>
<stop offset="1" stop-color="white"/>
</linearGradient>
<linearGradient id="paint1_linear_2921_3477" x1="15.5386" y1="0" x2="15.5386" y2="24" gradientUnits="userSpaceOnUse">
<stop stop-color="#F6F6F6"/>
<stop offset="1" stop-color="white"/>
</linearGradient>
<linearGradient id="paint2_linear_2921_3477" x1="15.5" y1="30.9474" x2="15.5" y2="-4" gradientUnits="userSpaceOnUse">
<stop stop-color="#D0180E"/>
<stop offset="1" stop-color="#FF2116"/>
</linearGradient>
</defs>
</svg>
