<svg width="28" height="28" viewBox="0 0 28 28" fill="none" xmlns="http://www.w3.org/2000/svg">
<rect width="28" height="28" rx="14" fill="#B5DEFA"/>
<path d="M19.1652 10.0071L14.5923 7.31675C14.4804 7.25085 14.3569 7.20786 14.229 7.19024C14.101 7.17262 13.9711 7.18072 13.8467 7.21406C13.7222 7.2474 13.6057 7.30535 13.5037 7.38458C13.4017 7.46381 13.3163 7.56277 13.2522 7.67582L10.9443 11.7659C10.2592 11.734 8.75283 11.8775 7.57958 13.5154C7.49862 13.628 7.44207 13.7567 7.41361 13.8933C7.38515 14.03 7.38542 14.1714 7.4144 14.3084C7.44338 14.4454 7.50043 14.5749 7.58182 14.6884C7.66322 14.802 7.76714 14.8971 7.88682 14.9676L11.5274 17.1089L9.68891 20.3524C9.62423 20.4666 9.60714 20.6026 9.64139 20.7304C9.67564 20.8582 9.75842 20.9674 9.87153 21.034C9.98464 21.1005 10.1188 21.119 10.2445 21.0853C10.3702 21.0516 10.4772 20.9685 10.5419 20.8543L12.3781 17.6095L16.0167 19.7506C16.1287 19.8168 16.2523 19.8601 16.3803 19.8779C16.5084 19.8958 16.6385 19.8879 16.7631 19.8546C16.7856 19.8486 16.8075 19.8427 16.83 19.8367C16.9625 19.791 17.0835 19.7168 17.1848 19.6192C17.2862 19.5215 17.3654 19.4027 17.4172 19.2709C18.1591 17.3878 17.7049 16.1402 17.2303 15.4492L19.5308 11.3694C19.5948 11.2564 19.6361 11.1314 19.6524 11.0018C19.6686 10.8721 19.6595 10.7403 19.6256 10.6138C19.5916 10.4873 19.5335 10.3686 19.4545 10.2645C19.3755 10.1604 19.2772 10.0729 19.1652 10.0071ZM18.6774 10.8683L16.213 15.2365C16.1621 15.3267 16.1406 15.4311 16.1515 15.535C16.1623 15.6388 16.205 15.7368 16.2735 15.8152C17.1391 16.8048 16.7895 18.1672 16.5048 18.8907L8.37438 14.1058C8.9326 13.3278 9.57569 12.9896 10.0992 12.8493C10.4301 12.7557 10.7773 12.7337 11.1183 12.7847C11.2196 12.8061 11.3246 12.7947 11.4186 12.7521C11.5126 12.7094 11.5906 12.6376 11.6417 12.547L14.105 8.17715L18.6773 10.8677L18.6774 10.8683Z" fill="#0982D8"/>
<path d="M9.26359 12.9359L11.4555 12.3394L14.0758 7.8009L19.272 10.8009L16.998 15.5394L17.4326 17.1868L16.7712 19.1324L8.11093 14.1324L9.26359 12.9359Z" fill="#0982D8"/>
<line x1="12.343" y1="17.372" x2="10.372" y2="20.657" stroke="#0982D8" stroke-width="2" stroke-linecap="round"/>
</svg>
