<svg width="25" height="24" viewBox="0 0 25 24" fill="none" xmlns="http://www.w3.org/2000/svg">
<g clip-path="url(#clip0_2921_3479)">
<g filter="url(#filter0_d_2921_3479)">
<path d="M6.5 2C6.5 0.89543 7.39543 0 8.5 0H14.5C20.0228 0 24.5 4.47715 24.5 10V22C24.5 23.1046 23.6046 24 22.5 24H8.5C7.39543 24 6.5 23.1046 6.5 22V2Z" fill="white"/>
</g>
<path fill-rule="evenodd" clip-rule="evenodd" d="M6.5 2.09524V21.9048C6.5 23.0619 7.42341 24 8.5625 24H22.4375C23.5766 24 24.5 23.0619 24.5 21.9048V5.51345C24.5 4.95376 24.2796 4.41734 23.8879 4.02377L20.4859 0.60556C20.0997 0.217598 19.5786 0 19.0355 0H8.5625C7.42341 0 6.5 0.93807 6.5 2.09524ZM7.8125 21.9048V2.09524C7.8125 1.67445 8.14829 1.33333 8.5625 1.33333H18.7812V5.90476C18.7812 6.69374 19.4108 7.33333 20.1875 7.33333H23.1875V21.9048C23.1875 22.3256 22.8517 22.6667 22.4375 22.6667H8.5625C8.14829 22.6667 7.8125 22.3256 7.8125 21.9048ZM23.1875 6V5.51345C23.1875 5.30993 23.1073 5.11487 22.9649 4.97175L20.0938 2.08691V5.90476C20.0938 5.95736 20.1357 6 20.1875 6H23.1875Z" fill="#EDEDEE"/>
<path d="M15.5 18C18.5 18 20 16.5 20 13.5H17V10.5H15.5V13.5V18Z" fill="#D35230"/>
<path d="M18.5 12V9C19.625 9 21.5 10.875 21.5 12H18.5Z" fill="#FF8F6B"/>
<path d="M0.5 6.9375C0.5 6.31618 1.00368 5.8125 1.625 5.8125H12.875C13.4963 5.8125 14 6.31618 14 6.9375V18.1875C14 18.8088 13.4963 19.3125 12.875 19.3125H1.625C1.00368 19.3125 0.5 18.8088 0.5 18.1875V6.9375Z" fill="#CA4C28"/>
<path d="M5 16.1411V8.625H6.99951C7.74463 8.625 8.23169 8.66089 8.46069 8.73267C8.82642 8.84888 9.1272 9.09668 9.36304 9.47607C9.60229 9.85547 9.72192 10.3442 9.72192 10.9424C9.72192 11.4858 9.61938 11.9421 9.41431 12.3113C9.20923 12.677 8.95288 12.9351 8.64526 13.0854C8.33765 13.2324 7.80786 13.3059 7.05591 13.3059H6.24072V16.1411H5ZM6.24072 9.89648V12.0293H6.92773C7.38916 12.0293 7.7019 11.9968 7.86597 11.9319C8.03345 11.8669 8.17017 11.7507 8.27612 11.5833C8.38208 11.4124 8.43506 11.2039 8.43506 10.9578C8.43506 10.7083 8.38037 10.498 8.271 10.3271C8.16162 10.1562 8.02661 10.0417 7.86597 9.98364C7.70532 9.92554 7.36523 9.89648 6.8457 9.89648H6.24072Z" fill="white"/>
</g>
<defs>
<filter id="filter0_d_2921_3479" x="2.5" y="0" width="26" height="32" filterUnits="userSpaceOnUse" color-interpolation-filters="sRGB">
<feFlood flood-opacity="0" result="BackgroundImageFix"/>
<feColorMatrix in="SourceAlpha" type="matrix" values="0 0 0 0 0 0 0 0 0 0 0 0 0 0 0 0 0 0 127 0" result="hardAlpha"/>
<feOffset dy="4"/>
<feGaussianBlur stdDeviation="2"/>
<feComposite in2="hardAlpha" operator="out"/>
<feColorMatrix type="matrix" values="0 0 0 0 0 0 0 0 0 0 0 0 0 0 0 0 0 0 0.04 0"/>
<feBlend mode="normal" in2="BackgroundImageFix" result="effect1_dropShadow_2921_3479"/>
<feBlend mode="normal" in="SourceGraphic" in2="effect1_dropShadow_2921_3479" result="shape"/>
</filter>
<clipPath id="clip0_2921_3479">
<rect width="24" height="24" fill="white" transform="translate(0.5)"/>
</clipPath>
</defs>
</svg>
