<svg width="21" height="21" viewBox="0 0 21 21" fill="none" xmlns="http://www.w3.org/2000/svg">
<path d="M18.9998 7.93146C19.541 9.70839 19.4763 11.3884 19.0483 12.923H17.3521C17.869 11.4772 17.9579 9.84569 17.3763 8.12531C16.5525 5.71839 14.4767 3.87685 11.989 3.37608C10.0587 2.98839 8.23327 3.38416 6.75519 4.28877L8.2575 6.46146H3.94442C3.27404 6.46146 2.7975 5.81531 2.99135 5.16916L4.33212 0.807617L5.82635 2.96416C7.58712 1.86569 9.75173 1.34069 12.0617 1.75262C15.3248 2.32608 18.0306 4.76531 18.9917 7.93146H18.9998ZM14.2587 16.7111C12.7806 17.6157 10.9633 18.0034 9.03288 17.6157C6.54519 17.1149 4.46942 15.2734 3.64558 12.8745C3.05596 11.1542 3.15288 9.51454 3.66173 8.06877H1.9575C1.52135 9.60339 1.46481 11.2834 2.00596 13.0684C2.97519 16.2345 5.67288 18.6738 8.93596 19.2392C11.246 19.643 13.4106 19.1261 15.1713 18.0276L16.6656 20.1842L18.0144 15.8145C18.2083 15.1845 17.7398 14.5465 17.0775 14.5465H12.7563L14.2506 16.7111H14.2587Z" fill="#151515"/>
</svg>
